<svg width="25" height="25" viewBox="0 0 25 25" fill="none" xmlns="http://www.w3.org/2000/svg">
<g id="add">
<path id="Vector" d="M22.3751 8.11379C21.8929 6.85616 21.1533 5.71334 20.2039 4.75863C19.2435 3.82405 18.1031 3.09483 16.8522 2.61534C15.4515 2.14536 13.9754 1.94155 12.4999 2.01442C11.0294 1.94587 9.55861 2.14263 8.15769 2.59531C6.89623 3.05457 5.74925 3.78216 4.79579 4.72795C3.84234 5.67373 3.10508 6.81521 2.63482 8.07372C2.15456 9.49435 1.94416 10.9924 2.0145 12.4905C1.94039 13.9986 2.15083 15.5072 2.63482 16.9373C3.11065 18.2011 3.85091 19.3485 4.80595 20.3025C5.76657 21.2272 6.90766 21.9432 8.15769 22.4057C9.55861 22.8584 11.0294 23.0552 12.4999 22.9866C13.9708 23.0533 15.4423 22.8704 16.8522 22.4458C18.1025 22.0124 19.2454 21.3157 20.2039 20.4027C21.1597 19.4531 21.9002 18.3089 22.3751 17.0475C22.8525 15.578 23.0593 14.034 22.9854 12.4905C23.0528 11.0064 22.8459 9.52266 22.3751 8.11379ZM19.6537 13.9127H13.9307V19.6415C13.9007 19.9994 13.7375 20.3329 13.4734 20.576C13.2094 20.8191 12.8637 20.954 12.5049 20.954C12.1462 20.954 11.8005 20.8191 11.5364 20.576C11.2724 20.3329 11.1092 19.9994 11.0792 19.6415V13.9127H5.35623C4.98474 13.9127 4.62846 13.765 4.36578 13.502C4.10309 13.2391 3.95551 12.8824 3.95551 12.5105C3.95551 12.1387 4.10309 11.782 4.36578 11.5191C4.62846 11.2561 4.98474 11.1084 5.35623 11.1084H11.0792V5.37958C11.1092 5.02171 11.2724 4.68817 11.5364 4.44507C11.8005 4.20197 12.1462 4.06705 12.5049 4.06705C12.8637 4.06705 13.2094 4.20197 13.4734 4.44507C13.7375 4.68817 13.9007 5.02171 13.9307 5.37958V11.1084H19.6537C20.0252 11.1084 20.3814 11.2561 20.6441 11.5191C20.9068 11.782 21.0544 12.1387 21.0544 12.5105C21.0544 12.8824 20.9068 13.2391 20.6441 13.502C20.3814 13.765 20.0252 13.9127 19.6537 13.9127Z" fill="#C9C9C9"/>
</g>
</svg>
