<svg width="25" height="26" viewBox="0 0 25 26" fill="none" xmlns="http://www.w3.org/2000/svg">
<path d="M17.2647 19.091C17.5184 19.3072 17.6827 19.6105 17.7257 19.9417C17.7686 20.2729 17.687 20.6082 17.4968 20.8823C17.371 21.0542 17.2104 21.1974 17.0256 21.3027C16.8408 21.4079 16.6359 21.4728 16.4243 21.4931C16.2127 21.5134 15.9993 21.4886 15.7979 21.4204C15.5965 21.3522 15.4118 21.2421 15.2558 21.0973L7.2204 13.5022C7.15089 13.4376 7.09543 13.3593 7.0575 13.2722C7.01958 13.1852 7 13.0912 7 12.9961C7 12.9011 7.01958 12.8071 7.0575 12.72C7.09543 12.6329 7.15089 12.5546 7.2204 12.4901L15.2023 4.9308C15.4366 4.70758 15.7341 4.56274 16.0539 4.51622C16.3737 4.46971 16.7 4.5238 16.9879 4.67106C17.1766 4.76957 17.3391 4.91204 17.4615 5.08652C17.584 5.26101 17.663 5.46242 17.6919 5.67385C17.7207 5.88529 17.6986 6.10059 17.6274 6.30168C17.5562 6.50277 17.4379 6.6838 17.2826 6.82957L10.7828 12.9916L17.2647 19.091Z" fill="#262626"/>
</svg>
