<svg width="25" height="26" viewBox="0 0 25 26" fill="none" xmlns="http://www.w3.org/2000/svg">
<g id="bell-unactive">
<path id="Vector" d="M20.8484 17.7466C20.496 17.2206 20.0775 16.742 19.603 16.3227C19.288 16.0517 18.9551 15.8022 18.6066 15.5759C18.6066 14.9884 18.6664 14.3711 18.6664 13.704C18.6948 12.4205 18.5575 11.1387 18.2579 9.89037C18.0007 8.82442 17.5554 7.81286 16.9427 6.90322C16.4292 6.13628 15.7477 5.49615 14.95 5.03128C14.6385 4.85876 14.3025 4.73454 13.9537 4.66286C13.9537 4.60312 13.9537 4.55333 13.9537 4.49359C13.9611 4.21533 13.9309 3.93735 13.864 3.66715C13.8019 3.43728 13.6971 3.22111 13.5551 3.02989C13.4254 2.86246 13.2626 2.7235 13.0769 2.62165C12.8842 2.53088 12.6718 2.48981 12.4592 2.50216C12.2475 2.49024 12.036 2.52774 11.8414 2.61169C11.652 2.70809 11.4881 2.84799 11.3632 3.01993C11.2174 3.20884 11.1123 3.42579 11.0543 3.65719C10.9819 3.9298 10.9517 4.21185 10.9646 4.49359V4.61308C10.5135 4.67544 10.0777 4.8206 9.67932 5.04123C8.88036 5.50011 8.19838 6.13737 7.68662 6.90322C7.07343 7.81378 6.6249 8.82484 6.36147 9.89037C6.06996 11.1566 5.94272 12.455 5.98286 13.7537C5.98286 14.4806 5.98286 15.1477 6.07253 15.795C5.83341 15.9675 5.60425 16.1468 5.38505 16.3326C4.90596 16.7643 4.48106 17.2524 4.11968 17.7864C4.05601 17.8848 4.01643 17.9969 4.00412 18.1134C3.99182 18.23 4.00715 18.3478 4.04886 18.4574C4.09057 18.5669 4.1575 18.6651 4.24423 18.744C4.33097 18.8229 4.43507 18.8803 4.54811 18.9115L5.19574 19.041C6.23746 19.2229 7.28862 19.3459 8.34421 19.4094C9.20108 19.4691 10.1377 19.4891 11.124 19.499C11.0997 19.5538 11.0797 19.6104 11.0642 19.6683C10.9919 19.9409 10.9617 20.2229 10.9746 20.5047C10.9617 20.7897 10.992 21.075 11.0642 21.351C11.1243 21.5817 11.2292 21.7982 11.3731 21.9883C11.4984 22.1574 11.6624 22.294 11.8514 22.3866C12.0446 22.4752 12.2572 22.5129 12.4691 22.4961C12.6799 22.5101 12.8911 22.4761 13.0869 22.3965C13.2719 22.3022 13.4348 22.1699 13.5651 22.0082C13.7053 21.8159 13.8099 21.6001 13.874 21.371C13.9414 21.0873 13.9715 20.7961 13.9636 20.5047C13.9711 20.2264 13.9409 19.9484 13.874 19.6782C13.874 19.6085 13.8241 19.5588 13.8042 19.499C14.8006 19.499 15.6973 19.499 16.5243 19.4194C17.5797 19.3593 18.6309 19.2396 19.6727 19.0609L20.3801 18.9215C20.506 18.9012 20.6245 18.8486 20.7239 18.7689C20.8234 18.6892 20.9005 18.5851 20.9477 18.4667C20.9948 18.3484 21.0105 18.2198 20.9931 18.0936C20.9757 17.9673 20.9259 17.8478 20.8484 17.7466ZM16.1556 17.2288C15.629 17.3271 15.0964 17.3903 14.5615 17.418C13.9437 17.4678 13.2562 17.4678 12.489 17.4678C11.7218 17.4678 11.0344 17.4678 10.4166 17.418C9.88189 17.3818 9.34964 17.3154 8.82246 17.2188C8.55123 17.1722 8.28455 17.1023 8.02539 17.0097C8.24446 16.5487 8.54869 16.1332 8.9221 15.785C9.08859 15.6357 9.26873 15.5024 9.46014 15.3867C9.36709 15.1456 9.28726 14.8997 9.22101 14.6499C9.06342 13.8669 8.99655 13.0684 9.02174 12.2701C8.99703 11.4785 9.06389 10.6866 9.22101 9.91028C9.36341 9.27702 9.60913 8.67149 9.94834 8.11799C10.222 7.65421 10.6051 7.26448 11.0642 6.98288C11.5048 6.73912 12.0067 6.62843 12.509 6.66425C13.012 6.63429 13.5132 6.74827 13.9537 6.99284C14.4042 7.28931 14.7849 7.68 15.0696 8.13791C15.4053 8.69204 15.6477 9.29754 15.787 9.93019C15.9473 10.6994 16.0175 11.4847 15.9962 12.2701C16.0196 13.0853 15.9493 13.9005 15.787 14.6997C15.7286 14.9396 15.6554 15.1757 15.5678 15.4066C15.756 15.5224 15.9328 15.6558 16.0958 15.8049C16.4657 16.1486 16.7696 16.5569 16.9926 17.0097C16.7091 17.1142 16.4151 17.1876 16.1158 17.2288H16.1556Z" fill="#262626"/>
</g>
</svg>
