<svg width="105" height="105" viewBox="0 0 105 105" fill="none" xmlns="http://www.w3.org/2000/svg">
<rect width="105" height="105" rx="15" fill="#EFEEEE"/>
<g clip-path="url(#clip0_940_11394)">
<path d="M52.5 43.5C55.8137 43.5 58.5 40.8137 58.5 37.5C58.5 34.1863 55.8137 31.5 52.5 31.5C49.1863 31.5 46.5 34.1863 46.5 37.5C46.5 40.8137 49.1863 43.5 52.5 43.5Z" fill="#888787"/>
<path d="M46.875 18.75L43.4438 22.5H37.5C35.4375 22.5 33.75 24.1875 33.75 26.25V48.75C33.75 50.8125 35.4375 52.5 37.5 52.5H67.5C69.5625 52.5 71.25 50.8125 71.25 48.75V26.25C71.25 24.1875 69.5625 22.5 67.5 22.5H61.5562L58.125 18.75H46.875ZM52.5 46.875C47.325 46.875 43.125 42.675 43.125 37.5C43.125 32.325 47.325 28.125 52.5 28.125C57.675 28.125 61.875 32.325 61.875 37.5C61.875 42.675 57.675 46.875 52.5 46.875Z" fill="#888787"/>
</g>
<path d="M7.96908 86.34V83.052C8.25708 83.052 8.47308 83 8.61708 82.896C8.76908 82.784 8.88508 82.636 8.96508 82.452C9.02908 82.292 9.08508 82.1 9.13308 81.876C9.18108 81.644 9.22108 81.396 9.25308 81.132C9.29308 80.86 9.32108 80.588 9.33708 80.316C9.39308 79.516 9.43308 78.716 9.45708 77.916C9.48108 77.116 9.49708 76.316 9.50508 75.516H14.9291V83.052H15.9491V86.34H14.9051V84H9.01308V86.34H7.96908ZM9.90108 83.052H13.8851V76.464H10.5251L10.4171 79.764C10.4091 79.956 10.3971 80.184 10.3811 80.448C10.3731 80.712 10.3491 80.992 10.3091 81.288C10.2771 81.576 10.2291 81.872 10.1651 82.176C10.1011 82.48 10.0131 82.772 9.90108 83.052ZM20.0269 84.072C19.3629 84.072 18.8069 83.936 18.3589 83.664C17.9109 83.384 17.5749 83 17.3509 82.512C17.1349 82.024 17.0269 81.468 17.0269 80.844C17.0269 80.212 17.1349 79.656 17.3509 79.176C17.5749 78.688 17.9109 78.304 18.3589 78.024C18.8069 77.744 19.3709 77.604 20.0509 77.604C20.7149 77.604 21.2669 77.744 21.7069 78.024C22.1549 78.304 22.4869 78.688 22.7029 79.176C22.9269 79.656 23.0389 80.212 23.0389 80.844C23.0389 81.468 22.9269 82.024 22.7029 82.512C22.4789 83 22.1429 83.384 21.6949 83.664C21.2549 83.936 20.6989 84.072 20.0269 84.072ZM20.0269 83.172C20.4909 83.172 20.8669 83.068 21.1549 82.86C21.4509 82.652 21.6669 82.372 21.8029 82.02C21.9469 81.668 22.0189 81.276 22.0189 80.844C22.0189 80.412 21.9469 80.02 21.8029 79.668C21.6669 79.316 21.4509 79.036 21.1549 78.828C20.8669 78.62 20.4909 78.516 20.0269 78.516C19.5709 78.516 19.1949 78.62 18.8989 78.828C18.6109 79.036 18.3949 79.316 18.2509 79.668C18.1149 80.02 18.0469 80.412 18.0469 80.844C18.0469 81.276 18.1149 81.668 18.2509 82.02C18.3949 82.372 18.6109 82.652 18.8989 82.86C19.1949 83.068 19.5709 83.172 20.0269 83.172ZM27.4348 84.072C27.0348 84.072 26.6788 84.016 26.3668 83.904C26.0548 83.784 25.7868 83.62 25.5628 83.412C25.3388 83.196 25.1548 82.944 25.0108 82.656C24.8668 82.36 24.7588 82.04 24.6868 81.696C24.6148 81.352 24.5788 80.988 24.5788 80.604C24.5788 79.988 24.5908 79.416 24.6148 78.888C24.6468 78.352 24.7348 77.876 24.8788 77.46C25.0228 77.036 25.2668 76.684 25.6108 76.404C25.9548 76.124 26.4388 75.928 27.0628 75.816C27.3828 75.76 27.6988 75.712 28.0108 75.672C28.3228 75.632 28.6388 75.592 28.9588 75.552C29.0628 75.536 29.1708 75.52 29.2828 75.504C29.3948 75.488 29.5108 75.468 29.6308 75.444C29.7588 75.42 29.8788 75.4 29.9908 75.384V76.32C29.9028 76.352 29.8068 76.38 29.7028 76.404C29.6068 76.42 29.5028 76.436 29.3908 76.452C29.2868 76.468 29.1788 76.48 29.0668 76.488C28.9628 76.496 28.8588 76.508 28.7548 76.524C28.6508 76.532 28.5508 76.544 28.4548 76.56C28.1748 76.592 27.8788 76.624 27.5668 76.656C27.2548 76.68 26.9588 76.744 26.6788 76.848C26.4068 76.944 26.1748 77.132 25.9828 77.412C25.8868 77.556 25.8028 77.728 25.7308 77.928C25.6668 78.128 25.6188 78.332 25.5868 78.54C25.5628 78.74 25.5468 78.932 25.5388 79.116C25.6988 78.892 25.8948 78.712 26.1268 78.576C26.3588 78.432 26.6068 78.328 26.8708 78.264C27.1348 78.192 27.3868 78.156 27.6268 78.156C28.2028 78.156 28.6908 78.276 29.0908 78.516C29.4908 78.748 29.7948 79.08 30.0028 79.512C30.2108 79.944 30.3148 80.448 30.3148 81.024C30.3148 81.6 30.2028 82.12 29.9788 82.584C29.7548 83.04 29.4268 83.404 28.9948 83.676C28.5708 83.94 28.0508 84.072 27.4348 84.072ZM27.4588 83.172C27.8588 83.172 28.1948 83.076 28.4668 82.884C28.7388 82.692 28.9428 82.436 29.0788 82.116C29.2228 81.796 29.2948 81.444 29.2948 81.06C29.2948 80.684 29.2228 80.348 29.0788 80.052C28.9428 79.748 28.7388 79.508 28.4668 79.332C28.2028 79.156 27.8748 79.068 27.4828 79.068C27.0988 79.068 26.7668 79.16 26.4868 79.344C26.2148 79.528 26.0028 79.776 25.8508 80.088C25.7068 80.392 25.6348 80.724 25.6348 81.084C25.6348 81.452 25.7028 81.796 25.8388 82.116C25.9748 82.436 26.1748 82.692 26.4388 82.884C26.7108 83.076 27.0508 83.172 27.4588 83.172ZM33.9629 84.072C33.6749 84.072 33.3949 84.036 33.1229 83.964C32.8589 83.884 32.6189 83.768 32.4029 83.616C32.1949 83.456 32.0269 83.26 31.8989 83.028C31.7789 82.788 31.7189 82.512 31.7189 82.2C31.7189 81.84 31.7829 81.536 31.9109 81.288C32.0469 81.04 32.2269 80.844 32.4509 80.7C32.6749 80.556 32.9349 80.452 33.2309 80.388C33.5269 80.324 33.8349 80.292 34.1549 80.292H36.0149C36.0149 79.932 35.9629 79.62 35.8589 79.356C35.7629 79.092 35.6029 78.888 35.3789 78.744C35.1549 78.592 34.8589 78.516 34.4909 78.516C34.2669 78.516 34.0589 78.54 33.8669 78.588C33.6749 78.636 33.5109 78.712 33.3749 78.816C33.2389 78.92 33.1389 79.06 33.0749 79.236H31.9829C32.0389 78.948 32.1469 78.704 32.3069 78.504C32.4749 78.296 32.6749 78.128 32.9069 78C33.1469 77.864 33.4029 77.764 33.6749 77.7C33.9469 77.636 34.2189 77.604 34.4909 77.604C35.0989 77.604 35.5869 77.728 35.9549 77.976C36.3229 78.216 36.5909 78.56 36.7589 79.008C36.9269 79.448 37.0109 79.972 37.0109 80.58V84H36.1589L36.0989 83.196C35.9229 83.436 35.7109 83.62 35.4629 83.748C35.2149 83.876 34.9589 83.96 34.6949 84C34.4389 84.048 34.1949 84.072 33.9629 84.072ZM34.0589 83.172C34.4589 83.172 34.8029 83.108 35.0909 82.98C35.3869 82.844 35.6149 82.648 35.7749 82.392C35.9349 82.136 36.0149 81.824 36.0149 81.456V81.144H34.8989C34.6349 81.144 34.3749 81.148 34.1189 81.156C33.8629 81.164 33.6309 81.196 33.4229 81.252C33.2149 81.308 33.0469 81.404 32.9189 81.54C32.7989 81.676 32.7389 81.872 32.7389 82.128C32.7389 82.368 32.7989 82.564 32.9189 82.716C33.0469 82.868 33.2109 82.984 33.4109 83.064C33.6189 83.136 33.8349 83.172 34.0589 83.172ZM38.8411 84V77.676H41.2891C41.5691 77.676 41.8451 77.696 42.1171 77.736C42.3971 77.768 42.6491 77.84 42.8731 77.952C43.1051 78.056 43.2891 78.212 43.4251 78.42C43.5691 78.628 43.6411 78.904 43.6411 79.248C43.6411 79.456 43.6091 79.648 43.5451 79.824C43.4811 79.992 43.3851 80.14 43.2571 80.268C43.1371 80.396 42.9811 80.508 42.7891 80.604C43.2211 80.7 43.5331 80.888 43.7251 81.168C43.9171 81.448 44.0131 81.768 44.0131 82.128C44.0131 82.448 43.9531 82.728 43.8331 82.968C43.7211 83.2 43.5611 83.392 43.3531 83.544C43.1531 83.696 42.9171 83.812 42.6451 83.892C42.3811 83.964 42.0971 84 41.7931 84H38.8411ZM39.8851 83.112H41.5531C41.8011 83.112 42.0331 83.088 42.2491 83.04C42.4651 82.992 42.6411 82.904 42.7771 82.776C42.9131 82.64 42.9811 82.448 42.9811 82.2C42.9811 81.944 42.9211 81.752 42.8011 81.624C42.6891 81.488 42.5411 81.396 42.3571 81.348C42.1811 81.292 41.9891 81.26 41.7811 81.252C41.5731 81.244 41.3771 81.24 41.1931 81.24H39.8851V83.112ZM39.8851 80.376H40.7611C40.9211 80.376 41.1051 80.368 41.3131 80.352C41.5291 80.336 41.7371 80.3 41.9371 80.244C42.1451 80.18 42.3131 80.084 42.4411 79.956C42.5771 79.828 42.6451 79.652 42.6451 79.428C42.6451 79.132 42.5611 78.928 42.3931 78.816C42.2331 78.696 42.0411 78.628 41.8171 78.612C41.5931 78.588 41.3851 78.576 41.1931 78.576H39.8851V80.376ZM45.6536 84V77.676H46.6736V82.524C46.7296 82.412 46.8056 82.292 46.9016 82.164C46.9976 82.028 47.0736 81.924 47.1296 81.852L50.1896 77.676H51.1976V84H50.1776V79.152C50.1136 79.272 50.0416 79.384 49.9616 79.488C49.8896 79.592 49.8216 79.688 49.7576 79.776L46.6496 84H45.6536ZM54.528 84V78.576H52.356V77.676H57.72V78.576H55.548V84H54.528ZM58.8802 84V77.676H59.9242V80.088H61.3162C61.6922 80.088 62.0282 80.12 62.3242 80.184C62.6282 80.24 62.8882 80.34 63.1042 80.484C63.3202 80.628 63.4842 80.824 63.5962 81.072C63.7162 81.312 63.7762 81.62 63.7762 81.996C63.7762 82.34 63.7162 82.64 63.5962 82.896C63.4762 83.144 63.3082 83.352 63.0922 83.52C62.8762 83.68 62.6162 83.8 62.3122 83.88C62.0162 83.96 61.6882 84 61.3282 84H58.8802ZM59.9242 83.112H60.5242C60.8042 83.112 61.0722 83.104 61.3282 83.088C61.5922 83.072 61.8322 83.032 62.0482 82.968C62.2642 82.904 62.4322 82.8 62.5522 82.656C62.6802 82.504 62.7442 82.296 62.7442 82.032C62.7442 81.776 62.6922 81.58 62.5882 81.444C62.4922 81.3 62.3642 81.196 62.2042 81.132C62.0442 81.06 61.8682 81.016 61.6762 81C61.4922 80.984 61.3082 80.976 61.1242 80.976H59.9242V83.112ZM71.8492 86.16V84.072C71.3612 84.056 70.9132 83.984 70.5052 83.856C70.1052 83.72 69.7572 83.524 69.4612 83.268C69.1732 83.004 68.9492 82.676 68.7892 82.284C68.6292 81.892 68.5492 81.428 68.5492 80.892C68.5492 80.172 68.6812 79.572 68.9452 79.092C69.2092 78.612 69.5852 78.248 70.0732 78C70.5692 77.752 71.1612 77.624 71.8492 77.616V75.672H72.8692V77.616C73.5572 77.624 74.1492 77.756 74.6452 78.012C75.1412 78.26 75.5212 78.624 75.7852 79.104C76.0492 79.584 76.1812 80.18 76.1812 80.892C76.1812 81.604 76.0412 82.192 75.7612 82.656C75.4812 83.12 75.0932 83.468 74.5972 83.7C74.1012 83.924 73.5252 84.048 72.8692 84.072V86.16H71.8492ZM71.8492 83.22V78.492C71.0972 78.492 70.5292 78.692 70.1452 79.092C69.7612 79.492 69.5692 80.08 69.5692 80.856C69.5692 81.368 69.6532 81.8 69.8212 82.152C69.9892 82.504 70.2412 82.768 70.5772 82.944C70.9132 83.12 71.3372 83.212 71.8492 83.22ZM72.8692 83.22C73.3892 83.212 73.8172 83.12 74.1532 82.944C74.4892 82.768 74.7412 82.504 74.9092 82.152C75.0772 81.8 75.1612 81.368 75.1612 80.856C75.1612 80.08 74.9652 79.492 74.5732 79.092C74.1892 78.692 73.6212 78.492 72.8692 78.492V83.22ZM80.5074 84.072C79.8434 84.072 79.2874 83.936 78.8394 83.664C78.3914 83.384 78.0554 83 77.8314 82.512C77.6154 82.024 77.5074 81.468 77.5074 80.844C77.5074 80.212 77.6154 79.656 77.8314 79.176C78.0554 78.688 78.3914 78.304 78.8394 78.024C79.2874 77.744 79.8514 77.604 80.5314 77.604C81.1954 77.604 81.7474 77.744 82.1874 78.024C82.6354 78.304 82.9674 78.688 83.1834 79.176C83.4074 79.656 83.5194 80.212 83.5194 80.844C83.5194 81.468 83.4074 82.024 83.1834 82.512C82.9594 83 82.6234 83.384 82.1754 83.664C81.7354 83.936 81.1794 84.072 80.5074 84.072ZM80.5074 83.172C80.9714 83.172 81.3474 83.068 81.6354 82.86C81.9314 82.652 82.1474 82.372 82.2834 82.02C82.4274 81.668 82.4994 81.276 82.4994 80.844C82.4994 80.412 82.4274 80.02 82.2834 79.668C82.1474 79.316 81.9314 79.036 81.6354 78.828C81.3474 78.62 80.9714 78.516 80.5074 78.516C80.0514 78.516 79.6754 78.62 79.3794 78.828C79.0914 79.036 78.8754 79.316 78.7314 79.668C78.5954 80.02 78.5274 80.412 78.5274 80.844C78.5274 81.276 78.5954 81.668 78.7314 82.02C78.8754 82.372 79.0914 82.652 79.3794 82.86C79.6754 83.068 80.0514 83.172 80.5074 83.172ZM86.6101 84V78.576H84.4381V77.676H89.8021V78.576H87.6301V84H86.6101ZM93.7222 84.072C93.0582 84.072 92.5022 83.936 92.0542 83.664C91.6062 83.384 91.2702 83 91.0462 82.512C90.8302 82.024 90.7222 81.468 90.7222 80.844C90.7222 80.212 90.8302 79.656 91.0462 79.176C91.2702 78.688 91.6062 78.304 92.0542 78.024C92.5022 77.744 93.0662 77.604 93.7462 77.604C94.4102 77.604 94.9622 77.744 95.4022 78.024C95.8502 78.304 96.1822 78.688 96.3982 79.176C96.6222 79.656 96.7342 80.212 96.7342 80.844C96.7342 81.468 96.6222 82.024 96.3982 82.512C96.1742 83 95.8382 83.384 95.3902 83.664C94.9502 83.936 94.3942 84.072 93.7222 84.072ZM93.7222 83.172C94.1862 83.172 94.5622 83.068 94.8502 82.86C95.1462 82.652 95.3622 82.372 95.4982 82.02C95.6422 81.668 95.7142 81.276 95.7142 80.844C95.7142 80.412 95.6422 80.02 95.4982 79.668C95.3622 79.316 95.1462 79.036 94.8502 78.828C94.5622 78.62 94.1862 78.516 93.7222 78.516C93.2662 78.516 92.8902 78.62 92.5942 78.828C92.3062 79.036 92.0902 79.316 91.9462 79.668C91.8102 80.02 91.7422 80.412 91.7422 80.844C91.7422 81.276 91.8102 81.668 91.9462 82.02C92.0902 82.372 92.3062 82.652 92.5942 82.86C92.8902 83.068 93.2662 83.172 93.7222 83.172Z" fill="#888787"/>
<defs>
<clipPath id="clip0_940_11394">
<rect width="45" height="45" fill="white" transform="translate(30 15)"/>
</clipPath>
</defs>
</svg>
