<svg width="25" height="25" viewBox="0 0 25 25" fill="none" xmlns="http://www.w3.org/2000/svg">
<g id="favorite">
<path id="Vector" d="M16.0021 3H9.0021C7.68561 3.03045 6.43149 3.56605 5.50034 4.49551C4.56919 5.42496 4.03261 6.67679 4.0021 7.99088V21.2866C3.99175 21.4158 4.01982 21.5452 4.08281 21.6586C4.14579 21.772 4.24089 21.8643 4.35619 21.924C4.47149 21.9837 4.60187 22.008 4.73099 21.9941C4.86012 21.9802 4.98225 21.9285 5.0821 21.8456L11.6521 16.3157C11.8925 16.1168 12.1949 16.008 12.5071 16.008C12.8193 16.008 13.1217 16.1168 13.3621 16.3157L19.9321 21.8456C20.0289 21.9277 20.1477 21.9797 20.2738 21.9952C20.3998 22.0106 20.5277 21.9889 20.6415 21.9326C20.7554 21.8763 20.8502 21.788 20.9143 21.6785C20.9783 21.569 21.0089 21.4432 21.0021 21.3165V7.99088C20.974 6.67601 20.4382 5.42277 19.5066 4.4928C18.5749 3.56283 17.3194 3.02801 16.0021 3Z" fill="#C9C9C9"/>
</g>
</svg>
