<svg width="25" height="25" viewBox="0 0 25 25" fill="none" xmlns="http://www.w3.org/2000/svg">
<g id="back">
<path id="Vector" d="M7.73531 6.40898C7.4816 6.19275 7.31725 5.88948 7.27434 5.55831C7.23142 5.22713 7.313 4.89179 7.50317 4.61768C7.62898 4.44584 7.78956 4.30259 7.97438 4.19733C8.15921 4.09207 8.36412 4.02717 8.57569 4.00687C8.78726 3.98658 9.00072 4.01135 9.20209 4.07957C9.40345 4.14779 9.58818 4.25791 9.74417 4.40272L17.7796 11.9978C17.8491 12.0624 17.9046 12.1407 17.9425 12.2278C17.9804 12.3148 18 12.4088 18 12.5039C18 12.5989 17.9804 12.6929 17.9425 12.78C17.9046 12.8671 17.8491 12.9454 17.7796 13.0099L9.79773 20.5692C9.56341 20.7924 9.26585 20.9373 8.94606 20.9838C8.62626 21.0303 8.29996 20.9762 8.01208 20.8289C7.82336 20.7304 7.66095 20.588 7.53846 20.4135C7.41597 20.239 7.33699 20.0376 7.30813 19.8261C7.27927 19.6147 7.30137 19.3994 7.3726 19.1983C7.44382 18.9972 7.56207 18.8162 7.71745 18.6704L14.2172 12.5084L7.73531 6.40898Z" fill="#262626"/>
</g>
</svg>
