<svg width="25" height="25" viewBox="0 0 25 25" fill="none" xmlns="http://www.w3.org/2000/svg">
<g id="home">
<path id="Vector" d="M21.1686 8.06278L14.4254 2.67464C13.8828 2.23809 13.2067 2 12.5095 2C11.8124 2 11.1363 2.23809 10.5937 2.67464L3.88055 8.06278C3.6035 8.27291 3.37958 8.54478 3.22671 8.85664C3.07384 9.16851 2.99624 9.51172 3.00014 9.85883V17.7714C3.01335 19.1679 3.5809 20.5022 4.57849 21.4822C5.57607 22.4621 6.9224 23.0079 8.32261 22.9999H9.00292V15.4166C8.99929 14.9396 9.08408 14.466 9.25304 14.0197C9.4117 13.609 9.6535 13.2354 9.96337 12.9221C10.2773 12.6104 10.6566 12.3719 11.0739 12.2236C11.5315 12.0541 12.0164 11.9696 12.5045 11.9742C12.9904 11.9688 13.4728 12.0569 13.9252 12.2336C14.3427 12.3805 14.7225 12.6177 15.0373 12.9282C15.3521 13.2387 15.5942 13.6149 15.746 14.0297C15.9094 14.474 15.9941 14.9433 15.9962 15.4166V22.95H16.6865C18.0858 22.958 19.431 22.4119 20.427 21.4317C21.423 20.4514 21.9884 19.1171 21.999 17.7215V9.85883C22.0095 9.51576 21.94 9.17494 21.7959 8.86325C21.6518 8.55156 21.437 8.27753 21.1686 8.06278Z" fill="#C9C9C9"/>
</g>
</svg>
