<svg width="105" height="52" viewBox="0 0 105 52" fill="none" xmlns="http://www.w3.org/2000/svg">
<g id="echo logo (2) 1">
<path id="Vector" d="M70.996 46.1969C70.19 46.202 69.3848 46.1407 68.5888 46.0135C67.9137 45.9146 67.2722 45.6552 66.7181 45.257C66.1904 44.8516 65.7817 44.3115 65.5351 43.6934C65.237 42.8888 65.0984 42.0338 65.127 41.1762V27.8334C65.127 26.2744 64.7419 25.174 63.9853 24.5596C63.1574 23.9293 62.1366 23.6052 61.0967 23.6425C60.3473 23.6387 59.6009 23.7359 58.8775 23.9314C58.3321 24.0705 57.8067 24.2785 57.3139 24.5504V45.5962L57.1489 45.6467C56.5164 45.814 55.8729 45.9366 55.2231 46.0135C54.3281 46.1359 53.4258 46.1972 52.5225 46.1969C51.7164 46.202 50.9113 46.1407 50.1153 46.0135C49.4369 45.916 48.7921 45.6565 48.2353 45.257C47.7076 44.8516 47.2989 44.3115 47.0524 43.6934C46.7543 42.8888 46.6157 42.0338 46.6443 41.1762V6.16852L46.8323 6.13184L48.7856 5.82464C49.6603 5.68327 50.5451 5.61274 51.4312 5.61372C52.2387 5.60752 53.0453 5.66732 53.843 5.79254C54.5183 5.89655 55.1593 6.15895 55.7137 6.55826C56.2389 6.96422 56.6471 7.50214 56.8967 8.11721C57.1948 8.92345 57.3334 9.77994 57.3048 10.639V16.1733C57.8137 15.9991 58.5015 15.8065 59.391 15.5864C60.5588 15.3143 61.7547 15.1819 62.9537 15.1921C66.9565 15.1921 70.1295 16.21 72.3808 18.2183C74.6321 20.2266 75.7875 23.262 75.7875 27.2419V45.5825L75.6271 45.6329C74.993 45.8002 74.3479 45.9228 73.6967 45.9997C72.802 46.1268 71.8997 46.1926 70.996 46.1969Z" fill="#9F7BFF"/>
<path id="Vector_2" d="M70.9971 46.885C70.1508 46.8924 69.3055 46.8264 68.4707 46.6878C67.689 46.5698 66.9469 46.2664 66.3065 45.8029C65.6841 45.3271 65.1998 44.694 64.9034 43.9688C64.5697 43.0801 64.4139 42.1344 64.4449 41.1856V27.8337C64.4449 26.4948 64.1469 25.5732 63.5554 25.0826C62.8542 24.5431 61.9865 24.2657 61.1023 24.2985C60.4148 24.2941 59.7299 24.3835 59.0665 24.5645C58.7009 24.6627 58.3436 24.7899 57.9982 24.945V46.1101L57.3471 46.3027C56.6804 46.4819 56.0015 46.6121 55.3159 46.6924C54.3893 46.8225 53.4546 46.8868 52.5189 46.885C51.6727 46.8924 50.8274 46.8264 49.9925 46.6878C49.2108 46.5698 48.4687 46.2664 47.8283 45.8029C47.2059 45.3271 46.7216 44.694 46.4253 43.9688C46.0916 43.0801 45.9358 42.1344 45.9668 41.1856V5.5911L46.7187 5.45813C47.1772 5.37559 47.8192 5.26555 48.6857 5.12341C50.4343 4.83949 52.2164 4.83021 53.9678 5.0959C54.7514 5.21491 55.4951 5.51993 56.1366 5.98542C56.7595 6.4607 57.2439 7.09394 57.5397 7.81948C57.8729 8.70992 58.0287 9.65698 57.9982 10.6073V15.2428C58.3604 15.142 58.7685 15.0365 59.2316 14.9219C60.4528 14.6328 61.7045 14.4927 62.9593 14.5046C67.1364 14.5046 70.4606 15.5821 72.8449 17.7142C75.2292 19.8463 76.4809 23.0697 76.4809 27.2468V46.1101L75.8299 46.3027C75.1636 46.4837 74.4846 46.614 73.7986 46.6924C72.8705 46.8227 71.9343 46.887 70.9971 46.885ZM61.0978 22.9459C62.2968 22.9126 63.4702 23.2967 64.4174 24.0326C65.3344 24.7845 65.793 26.0684 65.793 27.8428V41.1673C65.7648 41.9335 65.8846 42.6979 66.146 43.4186C66.3474 43.9244 66.6797 44.3675 67.1089 44.7024C67.5765 45.0333 68.1151 45.25 68.6816 45.3352C69.4396 45.4569 70.2065 45.5152 70.9742 45.5094C71.8469 45.5111 72.7188 45.4514 73.5831 45.3306C74.2067 45.2435 74.7065 45.161 75.0779 45.0738V27.2422C75.0779 23.4778 74.0095 20.6121 71.9004 18.7321C69.7912 16.8522 66.7604 15.8802 62.9318 15.8802C61.7884 15.8705 60.6479 15.9967 59.5342 16.2562C58.6585 16.4717 57.9936 16.6597 57.5076 16.8247L56.5906 17.1365V10.621C56.6181 9.85339 56.4982 9.08762 56.2375 8.36511C56.0332 7.86225 55.7013 7.42134 55.2746 7.08586C54.8061 6.75274 54.2658 6.53443 53.6973 6.44852C52.0959 6.20968 50.4672 6.22051 48.8692 6.48062L47.3056 6.74197V41.1673C47.2856 41.9368 47.4149 42.7029 47.6862 43.4232C47.8875 43.929 48.2199 44.3721 48.6491 44.707C49.1167 45.0379 49.6553 45.2546 50.2218 45.3398C50.9798 45.4615 51.7466 45.5198 52.5143 45.514C53.3871 45.5157 54.2589 45.456 55.1233 45.3352C55.834 45.2389 56.3063 45.1472 56.6181 45.0784V24.1655L56.9574 23.9638C57.5014 23.6508 58.0841 23.4104 58.6906 23.2485C59.4757 23.0397 60.2854 22.938 61.0978 22.9459Z" fill="#4F4AA5"/>
<path id="Vector_3" d="M42.8435 46.1971C40.4896 46.2252 38.1486 45.8451 35.9245 45.0737C33.9568 44.3796 32.146 43.3028 30.5965 41.9054C29.1105 40.5374 27.9361 38.8657 27.1531 37.0038C26.3223 34.9974 25.9074 32.8432 25.9334 30.6717C25.8837 28.2666 26.3301 25.8769 27.2448 23.6519C28.0404 21.7401 29.2602 20.0342 30.812 18.6632C32.3366 17.3517 34.1074 16.3572 36.0208 15.7379C38.0296 15.0839 40.1302 14.7558 42.2428 14.7659C45.159 14.7659 47.4424 15.3069 49.0334 16.3661C50.6245 17.4252 51.4773 18.865 51.4773 20.5752C51.4771 21.3614 51.2767 22.1346 50.895 22.822C50.5471 23.4679 50.1086 24.0608 49.5928 24.5827L49.4828 24.6973L49.336 24.6285C48.5457 24.2692 47.7323 23.9628 46.9013 23.7115C45.9142 23.4042 44.886 23.2496 43.8522 23.253C42.9157 23.2475 41.9852 23.4025 41.1011 23.7115C40.2592 24.0057 39.4888 24.4744 38.8406 25.087C38.1823 25.7193 37.6597 26.4791 37.3046 27.32C36.8969 28.3191 36.6987 29.3912 36.7223 30.47C36.7223 32.8726 37.4147 34.6883 38.7719 35.8759C40.1703 37.0837 41.9683 37.7277 43.8155 37.6824C44.8467 37.7016 45.8748 37.564 46.8647 37.2744C47.6469 37.0267 48.4126 36.7296 49.1572 36.3848L49.2764 36.3252L49.3865 36.4032C50.1313 36.9008 50.7651 37.5471 51.2481 38.3014C51.6841 39.0573 51.903 39.9188 51.8808 40.7912C51.8808 42.5106 51.0555 43.8632 49.4278 44.8032C47.8 45.7431 45.6312 46.1971 42.8435 46.1971Z" fill="#F8CC00"/>
<path id="Vector_4" d="M42.8432 46.885C40.4094 46.9109 37.9894 46.5153 35.6904 45.7158C33.6368 44.9917 31.7478 43.8664 30.1332 42.4053C28.5741 40.9692 27.3419 39.2147 26.5201 37.2608C25.652 35.1691 25.2183 32.9227 25.2454 30.6582C25.1982 28.1579 25.6665 25.6746 26.621 23.3632C27.4619 21.3621 28.7441 19.5768 30.3716 18.1407C31.9655 16.7721 33.8155 15.734 35.8142 15.087C37.8866 14.4112 40.0536 14.0707 42.2334 14.0782C45.2871 14.0782 47.6989 14.656 49.4046 15.7931C51.2387 17.0127 52.1557 18.6221 52.1557 20.5754C52.1607 21.4748 51.9349 22.3604 51.5 23.1477C51.1265 23.856 50.6541 24.5075 50.097 25.0826L49.6384 25.5411L49.0561 25.266C48.2938 24.9201 47.5095 24.6245 46.7085 24.3811C45.787 24.1022 44.8285 23.9646 43.8657 23.973C42.9993 23.9679 42.1384 24.1122 41.321 24.3994C40.5708 24.6615 39.8825 25.0751 39.2989 25.6145C38.7096 26.1843 38.2417 26.8674 37.9234 27.6228C37.5563 28.5358 37.3785 29.5139 37.4007 30.4977C37.4007 32.6894 38.0105 34.3355 39.2347 35.3855C40.506 36.4829 42.141 37.0666 43.8199 37.0224C44.7825 37.0401 45.7423 36.9133 46.6673 36.6464C47.4273 36.4076 48.1716 36.1212 48.8956 35.7889L49.3771 35.5597L49.8127 35.8669C50.6358 36.422 51.3364 37.1398 51.8714 37.9761C52.3712 38.8386 52.6235 39.8222 52.6005 40.8189C52.6005 42.7767 51.633 44.3678 49.8035 45.404C48.0887 46.3898 45.7548 46.885 42.8432 46.885ZM42.2426 15.4538C40.1982 15.4446 38.1656 15.7635 36.2223 16.3983C34.3948 16.9869 32.7034 17.9347 31.2474 19.1861C29.7771 20.4873 28.619 22.1031 27.859 23.9134C26.9848 26.054 26.5588 28.3511 26.6072 30.6627C26.5847 32.7423 26.9857 34.8047 27.7856 36.7243C28.5292 38.4985 29.6457 40.092 31.0594 41.3966C32.5411 42.735 34.2743 43.7653 36.1581 44.4274C38.3074 45.1709 40.5691 45.537 42.8432 45.5095C45.5072 45.5095 47.6118 45.051 49.0974 44.221C50.583 43.3911 51.2066 42.2815 51.2066 40.8051C51.2273 40.0592 51.0434 39.3218 50.6747 38.673C50.2906 38.0718 49.7958 37.549 49.2166 37.1324C48.5149 37.4414 47.797 37.7123 47.0662 37.944C46.0071 38.2595 44.9066 38.4141 43.8015 38.4025C41.7852 38.4533 39.8226 37.7484 38.2994 36.4263C36.7817 35.1058 36.0068 33.1112 36.0068 30.5023C35.9923 29.3203 36.2218 28.1481 36.6808 27.0588C37.0699 26.1422 37.6408 25.3139 38.359 24.6241C39.0775 23.9523 39.9287 23.4384 40.8579 23.1156C41.8237 22.774 42.8413 22.6018 43.8657 22.6066C44.9678 22.5945 46.0654 22.7491 47.1212 23.0651C47.8759 23.2946 48.6169 23.5671 49.3404 23.8813C49.7131 23.4613 50.0362 22.9997 50.3033 22.5058C50.6249 21.92 50.7921 21.262 50.7893 20.5937C50.7893 19.1082 50.0878 17.916 48.6526 16.9577C47.2175 15.9994 45.0212 15.4538 42.2426 15.4538Z" fill="#D59000"/>
<path id="Vector_5" d="M83.4491 46.1969C81.2323 46.2233 79.0286 45.8521 76.9428 45.101C75.0614 44.4163 73.3436 43.3465 71.8991 41.9602C70.4702 40.5594 69.3572 38.8695 68.6345 37.0036C67.8364 34.908 67.4427 32.68 67.4744 30.4377C67.4458 28.2151 67.8395 26.0072 68.6345 23.9314C69.3538 22.0597 70.4672 20.3646 71.8991 18.9611C73.3436 17.5747 75.0614 16.505 76.9428 15.8202C79.0271 15.0618 81.2312 14.6859 83.4491 14.7106C85.6668 14.6847 87.8704 15.0654 89.9508 15.834C90.9104 16.2019 91.8318 16.6626 92.7019 17.2095L99.0386 14.6006H99.2174L99.3137 14.7198C99.3351 14.7567 99.3463 14.7986 99.3463 14.8413C99.3463 14.884 99.3351 14.9259 99.3137 14.9628L96.7552 21.1986C97.3342 22.0739 97.8212 23.0066 98.2087 23.9818C98.9963 26.0388 99.3883 28.226 99.3642 30.4285C99.3998 32.7185 99.0079 34.995 98.2087 37.1412C97.5093 39.0117 96.4013 40.7026 94.9656 42.0907C93.5299 43.4789 91.8026 44.5292 89.9096 45.1652C87.83 45.8722 85.6455 46.221 83.4491 46.1969Z" fill="#DBC3A9"/>
<path id="Vector_6" d="M83.4504 46.8852C81.1504 46.9125 78.8642 46.5258 76.7011 45.7435C74.7382 45.0231 72.9459 43.9037 71.4373 42.456C69.9375 40.9819 68.7697 39.2044 68.0122 37.2426C67.1844 35.0662 66.7752 32.7529 66.8063 30.4245C66.7793 28.1159 67.1885 25.8229 68.0122 23.666C68.7691 21.7039 69.9369 19.9263 71.4373 18.4527C72.9459 17.0049 74.7382 15.8855 76.7011 15.1651C78.8641 14.3824 81.1504 13.9957 83.4504 14.0234C85.7528 13.9965 88.0406 14.3929 90.1998 15.1926C91.0846 15.5359 91.9389 15.9531 92.7537 16.4398L98.9024 13.918H99.5581L99.902 14.3398C99.9877 14.4698 100.04 14.6188 100.056 14.7738C100.071 14.9288 100.048 15.0851 99.9891 15.2293L97.5635 21.135C98.0772 21.9497 98.5132 22.8109 98.8657 23.7073C99.686 25.8444 100.095 28.1172 100.072 30.4062C100.107 32.7826 99.6977 35.1447 98.8657 37.371C98.1302 39.3338 96.9668 41.1081 95.4599 42.5651C93.9529 44.022 92.1404 45.125 90.1539 45.7939C87.9972 46.5339 85.7306 46.9029 83.4504 46.8852ZM83.4504 15.399C81.3166 15.3708 79.1951 15.7264 77.1871 16.449C75.4009 17.1044 73.7696 18.1223 72.3956 19.4385C71.0294 20.7734 69.9647 22.3853 69.2732 24.1658C68.5128 26.1621 68.1364 28.2839 68.1635 30.4199C68.133 32.5741 68.5094 34.7146 69.2732 36.7291C69.9581 38.5099 71.0166 40.1234 72.3773 41.461C73.7488 42.7803 75.3809 43.7985 77.1688 44.4505C79.1814 45.1806 81.3097 45.5394 83.4504 45.5097C85.581 45.5356 87.7005 45.1992 89.7183 44.5147C91.5178 43.9113 93.1597 42.9135 94.5242 41.5943C95.8886 40.275 96.9411 38.6677 97.6048 36.8896C98.3725 34.8221 98.7488 32.6297 98.7144 30.4245C98.7374 28.3083 98.3609 26.2067 97.6048 24.23C97.2404 23.3008 96.7794 22.4125 96.2293 21.5798L96.0275 21.2726L98.3201 15.6374L92.6208 17.9804L92.3181 17.7924C91.4904 17.2696 90.6135 16.8288 89.7 16.4765C87.7004 15.7374 85.5821 15.3722 83.4504 15.399Z" fill="#AA7656"/>
<path id="Vector_7" d="M33.4993 31.011C34.2559 30.2911 34.6364 29.2549 34.6364 27.8931C34.6539 26.1371 34.2975 24.3975 33.591 22.7898C32.9068 21.2554 31.9033 19.8845 30.6474 18.7687C29.3234 17.6128 27.7925 16.7182 26.1356 16.1322C24.276 15.4703 22.3136 15.1443 20.3399 15.1693C18.4717 15.1715 16.6153 15.4655 14.8377 16.0405C13.0194 16.6052 11.3452 17.5576 9.93057 18.8321C8.51598 20.1066 7.3947 21.6728 6.64408 23.4226C5.73216 25.574 5.29128 27.8956 5.35106 30.2315C5.29893 32.6367 5.73894 35.0271 6.64408 37.256C7.01552 38.1287 7.46678 38.9652 7.99211 39.7549C7.99211 39.7549 7.99211 39.7549 7.99211 39.7824L5.44735 45.9678C5.44281 45.9787 5.44161 45.9907 5.4439 46.0023C5.44619 46.0139 5.45187 46.0245 5.46023 46.0329C5.46858 46.0412 5.47922 46.0469 5.49081 46.0492C5.50239 46.0515 5.5144 46.0503 5.5253 46.0457L11.7932 43.4735C11.7974 43.471 11.8021 43.4698 11.807 43.4698C11.8118 43.4698 11.8165 43.471 11.8207 43.4735C12.9552 44.2073 14.1806 44.79 15.4659 45.2066C17.5898 45.8828 19.8076 46.2171 22.0364 46.197C23.5443 46.1891 25.0494 46.068 26.5391 45.8348C28.047 45.6274 29.5081 45.1621 30.8583 44.4593C32.5364 43.5789 33.377 42.2385 33.3801 40.4381C33.3787 39.6265 33.1483 38.8319 32.7153 38.1455C32.3196 37.4717 31.7716 36.9001 31.115 36.4765C31.1104 36.4732 31.1047 36.4713 31.099 36.4713C31.0932 36.4713 31.0876 36.4732 31.0829 36.4765C29.962 37.1205 28.7611 37.6139 27.5111 37.9438C26.0045 38.3692 24.4456 38.5806 22.8801 38.5719C21.265 38.6032 19.664 38.2661 18.1987 37.5861C17.5724 37.3082 17.0102 36.9042 16.5471 36.3993C16.084 35.8944 15.73 35.2995 15.5072 34.6516C15.5041 34.6486 15.5017 34.6451 15.5 34.6411C15.4984 34.6372 15.4975 34.633 15.4975 34.6287C15.4975 34.6244 15.4984 34.6202 15.5 34.6163C15.5017 34.6123 15.5041 34.6088 15.5072 34.6058L30.2943 32.3911C31.4814 32.2806 32.6032 31.7975 33.4993 31.011Z" fill="#F27449"/>
<path id="Vector_8" d="M22.0371 46.8849C19.735 46.9037 17.4446 46.557 15.2511 45.8579C14.0219 45.4593 12.8444 44.9159 11.7435 44.2393L5.78277 46.6832C5.64745 46.7349 5.50007 46.7464 5.35836 46.7163C5.21666 46.6863 5.08665 46.6159 4.98398 46.5137C4.8813 46.4115 4.81033 46.2818 4.7796 46.1403C4.74886 45.9987 4.75967 45.8513 4.81072 45.7157L7.22709 39.8284C6.76163 39.0978 6.35531 38.3312 6.01203 37.5358C5.07232 35.2208 4.61366 32.7388 4.66399 30.2408C4.61241 27.8055 5.08138 25.3872 6.03954 23.1476C6.82691 21.3112 8.00202 19.6666 9.48434 18.3268C10.9667 16.9869 12.7211 15.9834 14.6275 15.3849C16.4769 14.7823 18.4093 14.4729 20.3544 14.4679C22.4077 14.4447 24.4489 14.7847 26.3839 15.4721C28.1153 16.0849 29.7158 17.0182 31.102 18.2231C32.4333 19.4025 33.4965 20.8534 34.2199 22.4782C34.9619 24.1857 35.3323 26.0316 35.3066 27.8932C35.3066 29.443 34.8481 30.6443 33.931 31.5109C32.9363 32.3864 31.695 32.9325 30.3775 33.0745L16.5074 35.1699C16.9734 35.9674 17.6773 36.5991 18.5203 36.9764C19.893 37.6105 21.392 37.924 22.9037 37.8935C24.41 37.9014 25.9101 37.6993 27.3605 37.2928C28.5458 36.9818 29.6862 36.5195 30.7535 35.9173L31.1203 35.6926L31.5147 35.931C32.257 36.4113 32.8772 37.0581 33.3258 37.8201C33.8235 38.6096 34.0889 39.5233 34.0915 40.4566C34.0915 42.5245 33.1195 44.0834 31.2029 45.0876C29.7829 45.8253 28.248 46.3168 26.6636 46.5411C25.132 46.7692 23.5856 46.8841 22.0371 46.8849ZM11.8719 42.6987L12.2066 42.9004C13.2862 43.6005 14.4532 44.1555 15.6775 44.5511C17.7334 45.2046 19.8799 45.5281 22.0371 45.5094C23.5111 45.4998 24.9823 45.3818 26.4389 45.1563C27.8692 44.9551 29.2551 44.5133 30.538 43.8496C31.016 43.6284 31.4415 43.3081 31.7863 42.9099C32.131 42.5117 32.3871 42.0447 32.5376 41.54C32.6881 41.0352 32.7295 40.5042 32.659 39.9823C32.5886 39.4603 32.4079 38.9593 32.1291 38.5125C31.8492 38.045 31.4891 37.6306 31.0653 37.2882C30.0009 37.8477 28.8785 38.2889 27.7181 38.6042C26.1441 39.0471 24.5159 39.2678 22.8808 39.2598C21.1563 39.293 19.447 38.9323 17.883 38.2052C17.1754 37.8869 16.5405 37.4268 16.0176 36.8535C15.4948 36.2802 15.095 35.6057 14.843 34.8718L14.7376 34.5692L14.9072 34.2666C14.9621 34.1782 15.035 34.1023 15.1211 34.0438C15.2072 33.9854 15.3046 33.9457 15.407 33.9273L30.2171 31.7127C31.2491 31.6065 32.2246 31.1892 33.014 30.5159C33.633 29.9245 33.931 29.067 33.931 27.8932C33.9466 26.2353 33.6106 24.5929 32.9452 23.0742C32.3104 21.6291 31.3722 20.3374 30.1941 19.2869C28.9393 18.1871 27.4878 17.3346 25.9162 16.7742C24.1323 16.1433 22.2509 15.8329 20.359 15.8572C18.5577 15.8592 16.7679 16.1423 15.054 16.6963C13.3262 17.2308 11.7354 18.1347 10.3919 19.3453C9.04827 20.5558 7.98404 22.0441 7.27295 23.707C6.40361 25.7698 5.98317 27.9939 6.03954 30.2317C5.98657 32.5499 6.40785 34.8544 7.27753 37.0039C7.63182 37.8313 8.0632 38.6234 8.56596 39.3699L8.77229 39.6771L8.63015 40.0531L6.65395 44.84L11.8719 42.6987Z" fill="#AB4E39"/>
<path id="Vector_9" d="M76.5315 30.9787C75.6803 30.5797 75.0219 29.8596 74.7005 28.9762C74.3791 28.0927 74.4208 27.1179 74.8166 26.2652C74.8938 26.0998 75.0336 25.9719 75.2051 25.9096C75.3767 25.8472 75.566 25.8556 75.7313 25.9328C75.8967 26.01 76.0247 26.1498 76.087 26.3213C76.1493 26.4929 76.141 26.6821 76.0638 26.8475C75.8206 27.3692 75.7946 27.9662 75.9915 28.507C76.1884 29.0479 76.5921 29.4884 77.1138 29.7316C77.6355 29.9748 78.2324 30.0008 78.7733 29.8039C79.3141 29.607 79.7546 29.2033 79.9978 28.6816C80.0361 28.5997 80.0901 28.5261 80.1567 28.4651C80.2234 28.4041 80.3014 28.3568 80.3864 28.3259C80.4713 28.2951 80.5615 28.2812 80.6518 28.2852C80.7421 28.2892 80.8307 28.3109 80.9126 28.3492C80.9945 28.3874 81.068 28.4414 81.129 28.5081C81.1901 28.5747 81.2374 28.6527 81.2682 28.7377C81.2991 28.8226 81.3129 28.9128 81.3089 29.0031C81.305 29.0934 81.2832 29.182 81.245 29.2639C80.8469 30.1159 80.1269 30.7751 79.2431 31.0967C78.3593 31.4182 77.384 31.3758 76.5315 30.9787Z" fill="#303030"/>
<path id="Vector_10" d="M77.5307 24.6245C77.3659 24.546 77.2387 24.4056 77.1769 24.2339C77.1151 24.0621 77.1236 23.8729 77.2006 23.7074C77.4986 23.0655 77.3885 22.3319 76.953 22.1439C76.5174 21.9559 75.8938 22.3135 75.5774 22.9601C75.5002 23.1254 75.3604 23.2534 75.1889 23.3157C75.0173 23.3781 74.8281 23.3697 74.6627 23.2925C74.4973 23.2153 74.3694 23.0755 74.307 22.904C74.2447 22.7324 74.253 22.5431 74.3302 22.3777C74.9584 21.0343 76.3844 20.3694 77.5169 20.8967C78.6495 21.424 79.053 22.9463 78.434 24.2897C78.3563 24.4519 78.2186 24.5775 78.0501 24.6399C77.8815 24.7024 77.6952 24.6969 77.5307 24.6245Z" fill="#303030"/>
<path id="Vector_11" d="M83.5833 27.4575C83.4177 27.3798 83.2896 27.2398 83.2269 27.068C83.1642 26.8962 83.172 26.7065 83.2486 26.5405C83.5513 25.8985 83.4366 25.1649 83.001 24.9769C82.5654 24.7889 81.9465 25.1512 81.6255 25.7931C81.5899 25.8786 81.5374 25.956 81.4712 26.0207C81.405 26.0854 81.3264 26.1361 81.2401 26.1697C81.1538 26.2033 81.0616 26.2192 80.969 26.2163C80.8765 26.2134 80.7854 26.1918 80.7014 26.1529C80.6174 26.114 80.5421 26.0585 80.48 25.9897C80.418 25.921 80.3704 25.8405 80.3403 25.7529C80.3101 25.6654 80.2979 25.5726 80.3045 25.4802C80.311 25.3879 80.3361 25.2978 80.3783 25.2153C81.0065 23.8673 82.4371 23.207 83.565 23.7298C84.693 24.2525 85.1056 25.7793 84.482 27.1228C84.4053 27.2846 84.2685 27.4101 84.1007 27.4726C83.9328 27.5351 83.7472 27.5297 83.5833 27.4575Z" fill="#303030"/>
<path id="Vector_12" d="M22.082 25.4307C21.4837 25.4251 20.9036 25.2247 20.4295 24.8599C19.9554 24.495 19.6132 23.9855 19.4547 23.4086C19.4079 23.2323 19.433 23.0446 19.5246 22.8868C19.6162 22.729 19.7667 22.6141 19.943 22.5672C20.1193 22.5204 20.307 22.5456 20.4648 22.6372C20.6226 22.7287 20.7376 22.8792 20.7844 23.0556C20.8778 23.4001 21.104 23.6935 21.4135 23.8714C21.7229 24.0493 22.0903 24.0973 22.435 24.0047C22.7779 23.9102 23.0697 23.6844 23.2473 23.3764C23.4249 23.0683 23.4741 22.7027 23.3842 22.3586C23.3599 22.2713 23.3533 22.18 23.3647 22.0902C23.3761 22.0003 23.4053 21.9135 23.4505 21.835C23.4957 21.7565 23.5561 21.6878 23.6282 21.6328C23.7002 21.5779 23.7825 21.5378 23.8702 21.515C24.0465 21.4686 24.2339 21.4936 24.3919 21.5846C24.5498 21.6756 24.6655 21.8252 24.7139 22.001C24.8926 22.6981 24.7911 23.4375 24.4311 24.0606C24.0711 24.6838 23.4813 25.1411 22.7881 25.3344C22.558 25.3977 22.3206 25.4301 22.082 25.4307Z" fill="#303030"/>
<path id="Vector_13" d="M19.6663 30.2957C19.0693 30.2958 18.4888 30.0998 18.0141 29.7378C17.5394 29.3757 17.1968 28.8678 17.039 28.292C17.0085 28.2029 16.9967 28.1085 17.0041 28.0147C17.0116 27.9208 17.0382 27.8295 17.0824 27.7463C17.1266 27.6632 17.1874 27.59 17.2611 27.5313C17.3347 27.4727 17.4196 27.4297 17.5105 27.4052C17.6014 27.3806 17.6964 27.375 17.7896 27.3887C17.8827 27.4024 17.9721 27.435 18.0521 27.4846C18.1321 27.5342 18.2011 27.5998 18.2548 27.6771C18.3085 27.7545 18.3457 27.842 18.3642 27.9344C18.4089 28.1064 18.4873 28.2679 18.5948 28.4096C18.7023 28.5512 18.8367 28.6702 18.9903 28.7597C19.144 28.8491 19.3138 28.9073 19.4901 28.9309C19.6663 28.9545 19.8454 28.9429 20.0172 28.897C20.1889 28.851 20.3499 28.7715 20.4908 28.6631C20.6317 28.5546 20.7498 28.4194 20.8382 28.2652C20.9266 28.1109 20.9837 27.9407 21.006 27.7643C21.0284 27.5879 21.0156 27.4089 20.9685 27.2374C20.9211 27.0611 20.9457 26.8731 21.0368 26.7149C21.128 26.5567 21.2782 26.4412 21.4545 26.3937C21.6309 26.3463 21.8188 26.3709 21.977 26.462C22.1353 26.5532 22.2508 26.7034 22.2982 26.8798C22.4784 27.5775 22.3775 28.3181 22.0174 28.9423C21.6573 29.5665 21.0667 30.0245 20.3725 30.2178C20.1412 30.2729 19.904 30.2991 19.6663 30.2957Z" fill="#303030"/>
<path id="Vector_14" d="M15.6683 26.2194C16.2887 26.2194 16.7916 25.7164 16.7916 25.096C16.7916 24.4756 16.2887 23.9727 15.6683 23.9727C15.0479 23.9727 14.5449 24.4756 14.5449 25.096C14.5449 25.7164 15.0479 26.2194 15.6683 26.2194Z" fill="#303030"/>
</g>
</svg>
