<svg width="25" height="25" viewBox="0 0 25 25" fill="none" xmlns="http://www.w3.org/2000/svg">
<g id="profile">
<path id="Vector" d="M22.354 9.10673C21.8731 7.84908 21.1311 6.70726 20.1769 5.75627C19.2257 4.82585 18.094 4.09964 16.8512 3.62235C15.4535 3.15173 13.9803 2.94545 12.5069 3.01408C11.0316 2.94285 9.55578 3.14226 8.15255 3.60241C6.89186 4.06186 5.7456 4.78807 4.79233 5.73127C3.83907 6.67446 3.10135 7.81232 2.62977 9.06684C2.15445 10.4822 1.94455 11.973 2.01057 13.4643C1.94249 14.9721 2.15238 16.4796 2.62977 17.9116C3.10822 19.1705 3.8505 20.3128 4.80692 21.2621C5.06584 21.5138 5.33929 21.7502 5.62585 21.9701C5.67983 21.629 5.77022 21.2947 5.8955 20.9729C6.22191 20.1306 6.7221 19.3661 7.36358 18.7293C8.01045 18.1025 8.78314 17.6199 9.63063 17.3133C10.5783 17.0098 11.5727 16.8781 12.5668 16.9245C13.5617 16.8762 14.5571 17.0114 15.503 17.3233C16.3497 17.6408 17.1215 18.1297 17.77 18.7592C18.4158 19.3926 18.9166 20.158 19.2381 21.0028C19.3574 21.3259 19.4444 21.6599 19.4977 22C19.7444 21.8134 19.978 21.6102 20.1968 21.3917C21.1574 20.4459 21.9003 19.3026 22.374 18.0413C22.8513 16.575 23.0577 15.0342 22.9832 13.4942C23.0478 12.0054 22.8344 10.5176 22.354 9.10673ZM15.7726 13.0056C15.6147 13.4268 15.3658 13.8082 15.0436 14.1224C14.7282 14.4267 14.3498 14.6582 13.935 14.8005C13.4664 14.944 12.9764 15.0047 12.4869 14.98C11.9933 15.0075 11.4989 14.9432 11.0288 14.7905C10.6123 14.6374 10.2341 14.3959 9.92024 14.0826C9.59619 13.7698 9.34699 13.388 9.1912 12.9657C9.03086 12.4909 8.95975 11.9906 8.98147 11.4899C8.96053 10.9926 9.03163 10.4957 9.1912 10.0241C9.34294 9.59111 9.59238 9.19876 9.92024 8.87738C10.2341 8.56406 10.6123 8.3225 11.0288 8.1694C11.9783 7.89706 12.9855 7.89706 13.935 8.1694C14.3497 8.32605 14.7272 8.56716 15.0436 8.87738C15.3658 9.19166 15.6147 9.57297 15.7726 9.9942C15.9289 10.4629 15.9966 10.9566 15.9723 11.4501C16.0026 11.9764 15.9349 12.5039 15.7726 13.0056Z" fill="#C9C9C9"/>
</g>
</svg>
