<svg width="25" height="25" viewBox="0 0 25 25" fill="none" xmlns="http://www.w3.org/2000/svg">
<g id="search">
<path id="Vector" d="M22.5651 20.4381L18.3351 16.2097C19.6427 14.3711 20.2117 12.1086 19.9292 9.87043C19.6467 7.63229 18.5334 5.58191 16.8098 4.12565C15.0863 2.66939 12.8784 1.91353 10.6236 2.00788C8.36883 2.10223 6.2318 3.0399 4.63605 4.63505C3.04029 6.23021 2.10227 8.36643 2.00788 10.6203C1.9135 12.8743 2.66964 15.0814 4.12645 16.8043C5.58326 18.5271 7.63441 19.6401 9.87341 19.9224C12.1124 20.2048 14.3758 19.6361 16.2151 18.3289L20.4451 22.5573C20.5837 22.6975 20.7487 22.8089 20.9307 22.8849C21.1126 22.9609 21.3079 23 21.5051 23C21.7023 23 21.8975 22.9609 22.0795 22.8849C22.2614 22.8089 22.4265 22.6975 22.5651 22.5573C22.8436 22.2749 22.9997 21.8943 22.9997 21.4977C22.9997 21.1012 22.8436 20.7205 22.5651 20.4381Z" fill="#C8C8C8"/>
</g>
</svg>
